<!-- src/Icon.svg -->
<svg xmlns="http://www.w3.org/2000/svg" version="1.1" width="256" height="256" viewBox="0 0 256 256" xml:space="preserve">
  <defs></defs>
  <g transform="translate(1.4065934065934016 1.4065934065934016) scale(2.81 2.81)">
    <path d="M 45 90 C 20.187 90 0 69.813 0 44.999 C 0 20.187 20.187 0 45 0 c 0.044 0 0.087 0 0.131 0.002 C 69.884 0.073 90 20.231 90 44.999 C 90 69.813 69.813 90 45 90 z M 44.88 8 C 24.533 8.065 8 24.638 8 44.999 C 8 65.401 24.598 82 45 82 c 20.402 0 37 -16.599 37 -37.001 c 0 -20.4 -16.599 -36.997 -37 -36.997 C 44.96 8.002 44.92 8.001 44.88 8 z" fill="none" stroke="white" stroke-width="2"/>
    <path d="M 62.831 66.776 c -0.681 0 -1.35 -0.188 -1.945 -0.551 c -10.102 -6.175 -22.857 -7.559 -37.909 -4.121 c -0.975 0.225 -1.977 0.054 -2.824 -0.479 c -0.847 -0.531 -1.436 -1.361 -1.657 -2.336 c -0.223 -0.975 -0.053 -1.978 0.479 -2.825 c 0.532 -0.846 1.362 -1.434 2.337 -1.655 c 17.023 -3.892 31.65 -2.2 43.478 5.026 c 0.854 0.524 1.453 1.347 1.688 2.317 c 0.234 0.973 0.076 1.979 -0.447 2.831 h -0.001 c -0.521 0.853 -1.342 1.452 -2.313 1.687 C 63.423 66.741 63.126 66.776 62.831 66.776 z" fill="none" stroke="white" stroke-width="2"/>
    <path d="M 67.629 55.115 c -0.79 0 -1.588 -0.21 -2.308 -0.653 c -11.596 -7.127 -29.289 -9.191 -43.03 -5.022 c -2.341 0.707 -4.819 -0.618 -5.528 -2.951 c -0.704 -2.338 0.621 -4.816 2.953 -5.526 c 16.24 -4.929 36.431 -2.536 50.242 5.951 c 1.008 0.62 1.715 1.595 1.991 2.745 c 0.276 1.151 0.087 2.341 -0.533 3.348 l 0 0 v -0.001 l 0 0 C 70.577 54.365 69.119 55.115 67.629 55.115 z" fill="none" stroke="white" stroke-width="2"/>
    <path d="M 73.116 41.584 c -0.908 0 -1.802 -0.244 -2.601 -0.72 c -13.945 -8.282 -36.977 -9.04 -50.316 -4.99 c -1.307 0.397 -2.691 0.26 -3.896 -0.383 c -1.206 -0.644 -2.088 -1.719 -2.484 -3.026 c -0.817 -2.699 0.712 -5.561 3.41 -6.381 c 15.751 -4.781 41.943 -3.851 58.508 5.983 c 2.425 1.439 3.227 4.584 1.787 7.009 c -0.694 1.175 -1.808 2.008 -3.134 2.347 C 73.968 41.531 73.54 41.584 73.116 41.584 z" fill="none" stroke="white" stroke-width="2"/>
  </g>
</svg>
